<svg width="121" height="33" viewBox="0 0 121 33" fill="none" xmlns="http://www.w3.org/2000/svg">
<path d="M16.185 7.752C16.117 7.662 15.879 7.492 15.471 7.242C15.063 6.992 14.553 6.732 13.941 6.46C13.329 6.188 12.66 5.95 11.935 5.746C11.2272 5.54446 10.495 5.44149 9.759 5.44C7.764 5.44 6.767 6.109 6.767 7.446C6.767 7.854 6.874 8.194 7.09 8.466C7.305 8.738 7.622 8.982 8.042 9.197C8.461 9.412 8.988 9.611 9.622 9.792L11.028 10.185L11.833 10.404C12.989 10.721 14.031 11.067 14.961 11.441C15.89 11.815 16.678 12.28 17.324 12.835C17.9685 13.3882 18.4798 14.0797 18.82 14.858C19.17 15.651 19.347 16.603 19.347 17.714C19.347 19.074 19.092 20.224 18.582 21.165C18.072 22.105 17.397 22.865 16.559 23.443C15.719 24.021 14.757 24.44 13.669 24.701C12.581 24.961 11.459 25.092 10.303 25.092C8.46121 25.0815 6.63001 24.8126 4.863 24.293C3.979 24.033 3.123 23.721 2.296 23.358C1.49395 23.0095 0.725426 22.5884 0 22.1L2.448 17.238C2.538 17.351 2.833 17.567 3.332 17.884C3.83 18.201 4.448 18.519 5.185 18.836C5.921 19.153 6.743 19.436 7.65 19.686C8.556 19.936 9.474 20.06 10.404 20.06C12.376 20.06 13.362 19.46 13.362 18.258C13.362 17.805 13.214 17.431 12.92 17.136C12.625 16.841 12.217 16.575 11.696 16.337C11.2072 16.1182 10.7049 15.9311 10.192 15.777L8.49 15.282L7.514 14.994C6.403 14.654 5.44 14.286 4.624 13.889C3.808 13.492 3.134 13.033 2.601 12.512C2.07788 12.0051 1.67176 11.3901 1.411 10.71C1.15 10.03 1.02 9.237 1.02 8.33C1.02 7.06 1.258 5.939 1.734 4.964C2.19289 4.01108 2.85429 3.16982 3.672 2.499C4.51251 1.81721 5.47637 1.30353 6.511 0.986C7.587 0.646 8.726 0.476 9.928 0.476C10.766 0.476 11.594 0.556 12.41 0.714C13.226 0.873 14.008 1.077 14.756 1.326C15.504 1.576 16.201 1.859 16.846 2.176C17.493 2.493 18.088 2.811 18.632 3.128L16.184 7.752H16.185ZM39.609 24.82H34.169V14.79C34.169 13.634 33.942 12.784 33.489 12.24C33.035 11.696 32.412 11.424 31.619 11.424C31.301 11.424 30.956 11.498 30.582 11.645C30.1886 11.8038 29.8217 12.0216 29.494 12.291C29.1317 12.5853 28.806 12.922 28.524 13.294C28.227 13.6838 27.9971 14.1205 27.844 14.586V24.82H22.404V0H27.844V9.962C28.4747 8.92199 29.3734 8.07063 30.446 7.497C31.522 6.919 32.706 6.63 33.999 6.63C35.2 6.63 36.169 6.84 36.906 7.259C37.642 7.679 38.209 8.211 38.606 8.857C39.002 9.503 39.269 10.228 39.405 11.033C39.541 11.838 39.609 12.625 39.609 13.396V24.82V24.82ZM51.949 25.16C50.43 25.16 49.076 24.91 47.886 24.412C46.696 23.913 45.693 23.239 44.876 22.389C44.0616 21.541 43.4311 20.534 43.024 19.431C42.6037 18.3055 42.3903 17.1134 42.394 15.912C42.394 14.688 42.604 13.515 43.024 12.393C43.4314 11.2899 44.0623 10.2829 44.877 9.435C45.693 8.585 46.696 7.905 47.886 7.395C49.076 6.885 50.43 6.63 51.949 6.63C53.468 6.63 54.816 6.885 55.995 7.395C57.174 7.905 58.171 8.585 58.987 9.435C59.8031 10.2851 60.4391 11.2912 60.857 12.393C61.2879 13.516 61.5069 14.7092 61.503 15.912C61.5067 17.1134 61.2933 18.3055 60.873 19.431C60.4659 20.534 59.8354 21.541 59.021 22.389C58.205 23.239 57.201 23.913 56.011 24.412C54.821 24.911 53.468 25.16 51.949 25.16V25.16ZM47.97 15.912C47.97 17.317 48.344 18.445 49.092 19.295C49.84 20.145 50.792 20.57 51.948 20.57C52.4883 20.5758 53.0229 20.4596 53.512 20.23C53.988 20.003 54.402 19.686 54.752 19.278C55.12 18.8414 55.4028 18.3398 55.586 17.799C55.7948 17.192 55.8983 16.5538 55.892 15.912C55.892 14.507 55.518 13.379 54.77 12.529C54.022 11.679 53.081 11.254 51.948 11.254C51.4091 11.2497 50.8758 11.363 50.3852 11.5862C49.8947 11.8093 49.4588 12.1369 49.108 12.546C48.7408 12.9827 48.4586 13.4844 48.276 14.025C48.0672 14.632 47.9637 15.2702 47.97 15.912V15.912ZM75.746 11.628C74.431 11.651 73.241 11.866 72.176 12.274C71.111 12.682 70.34 13.294 69.864 14.11V24.82H64.424V6.97H69.422V10.574C70.034 9.373 70.822 8.432 71.785 7.752C72.748 7.072 73.774 6.721 74.862 6.698H75.406C75.519 6.698 75.633 6.709 75.746 6.732V11.628V11.628ZM89.82 23.868C88.9836 24.2159 88.1263 24.5112 87.253 24.752C86.29 25.024 85.321 25.16 84.346 25.16C83.666 25.16 83.026 25.075 82.426 24.905C81.8474 24.7467 81.3084 24.4687 80.844 24.089C80.391 23.715 80.034 23.222 79.774 22.61C79.512 21.998 79.382 21.261 79.382 20.4V11.084H77.104V6.97H79.382V1.292H84.822V6.97H88.46V11.084H84.822V18.53C84.822 19.12 84.969 19.544 85.264 19.805C85.559 20.065 85.933 20.196 86.386 20.196C86.794 20.196 87.213 20.128 87.644 19.992C88.074 19.856 88.449 19.709 88.766 19.55L89.82 23.868V23.868ZM92.097 0H97.537V18.462C97.537 19.822 98.115 20.502 99.271 20.502C99.543 20.502 99.843 20.462 100.172 20.383C100.501 20.303 100.802 20.185 101.073 20.026L101.787 24.106C101.107 24.423 100.325 24.673 99.441 24.854C98.557 25.035 97.73 25.126 96.959 25.126C95.395 25.126 94.194 24.718 93.355 23.902C92.516 23.086 92.097 21.907 92.097 20.366V0V0ZM103.553 27.506C104.007 27.665 104.432 27.778 104.828 27.846C105.182 27.91 105.54 27.9441 105.899 27.948C106.557 27.948 107.067 27.721 107.429 27.268C107.792 26.815 108.121 25.998 108.415 24.82L101.615 6.97H107.225L111.373 20.162L114.943 6.97H120.043L113.243 27.71C112.794 29.1454 111.901 30.4013 110.693 31.297C109.469 32.215 108.019 32.674 106.341 32.674C105.879 32.6733 105.419 32.6335 104.964 32.555C104.482 32.4708 104.01 32.3399 103.554 32.164V27.506H103.553Z" fill="#35323E"/>
</svg>
